<svg width="18" height="15" viewBox="0 0 18 15" fill="none" xmlns="http://www.w3.org/2000/svg">
<path d="M15.0603 0.475454C15.3664 0.171986 15.7797 0.00119555 16.2108 6.25284e-06C16.6418 -0.00118304 17.056 0.167324 17.3639 0.469099C17.6717 0.770873 17.8483 1.18167 17.8557 1.61267C17.863 2.04367 17.7005 2.46024 17.4031 2.77233L8.67061 13.688C8.52053 13.8496 8.33939 13.9793 8.13803 14.0694C7.93666 14.1594 7.7192 14.2079 7.49866 14.212C7.27812 14.2161 7.05902 14.1757 6.85445 14.0932C6.64989 14.0106 6.46408 13.8877 6.30811 13.7317L0.522175 7.94358C0.360985 7.79338 0.231699 7.61226 0.142029 7.41101C0.0523589 7.20976 0.00414204 6.99251 0.000255325 6.77222C-0.00363139 6.55194 0.0368918 6.33312 0.119406 6.12884C0.201921 5.92455 0.324737 5.73898 0.480529 5.58318C0.63632 5.42739 0.821893 5.30458 1.02618 5.22206C1.23047 5.13955 1.44928 5.09902 1.66957 5.10291C1.88986 5.1068 2.1071 5.15501 2.30835 5.24468C2.5096 5.33435 2.69073 5.46364 2.84092 5.62483L7.42155 10.2033L15.0187 0.52358C15.0323 0.506631 15.0469 0.490556 15.0625 0.475454H15.0603Z" fill="#717171"/>
</svg>
